<?xml version="1.0" standalone="yes"?>
<svg xmlns="http://www.w3.org/2000/svg" width="168" height="164">
<path style="fill:#010201; stroke:none;" d="M0 0L0 56C6.32932 52.8514 20.5262 45.3633 23.3966 38.6998C26.0724 32.4883 24 21.7255 24 15L59 14.2971L79 1L54 0L0 0z"/>
<path style="fill:#56b148; stroke:none;" d="M59 14L59 15L108 15C102.138 8.58578 89.3578 -2.23488 80 0.513123C72.3975 2.74567 65.8573 10.0938 59 14z"/>
<path style="fill:#010201; stroke:none;" d="M88 0L88 1L108 14.1566L144 15C144 21.8091 141.954 32.5016 144.603 38.8156C147.45 45.6008 161.721 52.5042 168 56L168 0L88 0z"/>
<path style="fill:#fbfefa; stroke:none;" d="M24 15L24 56L25.0278 73.6998L42 86.7091L83 116L84 116L126 86.4244L142.972 73.6744L144 57L144 15L24 15z"/>
<path style="fill:#56b148; stroke:none;" d="M64 33L64 51L74 51L74 42L80 42C77.3922 32.4765 72.9 33 64 33z"/>
<path style="fill:#89d07e; stroke:none;" d="M77 33C80.2766 46.7774 104.938 40.5524 94 59C98.2583 56.8403 102.015 55.9383 106 59C116.838 38.6148 91.0034 33 77 33z"/>
<path style="fill:#a9dda1; stroke:none;" d="M92.6667 33.3333L93.3333 33.6667L92.6667 33.3333M96 34L97 35L96 34M98 35L99 36L98 35M100 36L101 37L100 36M101 37L102 38L101 37M102 38L103 39L102 38M103 39L104 40L103 39z"/>
<path style="fill:#56b148; stroke:none;" d="M0 56L24 74L24 40L0 56z"/>
<path style="fill:#a9dda1; stroke:none;" d="M104 40L105 41L104 40z"/>
<path style="fill:#56b148; stroke:none;" d="M144 40L144 73L168 57L168 56L144 40z"/>
<path style="fill:#a9dda1; stroke:none;" d="M74 42L74 43L91 43L74 42M94 44L95 45L94 44M106 44L107 45L106 44M95 45L96 46L95 45M96 46L97 47L96 46M107.333 46.6667L107.667 47.3333L107.333 46.6667M97.3333 48.6667L97.6667 49.3333L97.3333 48.6667M97 53L98 54L97 53M107.333 55.6667L107.667 56.3333L107.333 55.6667z"/>
<path style="fill:#56b148; stroke:none;" d="M64 89L74 89C74 84.0532 72.4862 76.1496 76.3179 72.3179C85.2523 63.3835 101.817 74.5909 106 57C99.3338 56.7189 95.5375 59.1582 89.2855 60.0301C81.5836 61.1042 72.2405 58.5931 66.8789 66.1049C62.4477 72.3131 64 81.814 64 89z"/>
<path style="fill:#89d07e; stroke:none;" d="M0 57L2 59L0 57M167 57L168 58L167 57z"/>
<path style="fill:#a9dda1; stroke:none;" d="M0 58L1.02778 69.6998L16 81.6296L51 107.873L71 121.954L83 117L83 115C56.6725 96.1436 29.2603 71.9035 0 58M123 89L130 85C138.682 103.595 150.593 121.299 160.989 139C166.093 147.691 170.801 157.446 159 163L159 164C171.047 161.562 168 147.393 168 138L168 58C154.439 63.14 132.241 77.8191 123 89z"/>
<path style="fill:#89d07e; stroke:none;" d="M3 59L4 60L3 59z"/>
<path style="fill:#a9dda1; stroke:none;" d="M91.6667 59.3333L92.3333 59.6667L91.6667 59.3333z"/>
<path style="fill:#89d07e; stroke:none;" d="M164 59L165 60L164 59M4 60L5 61L4 60z"/>
<path style="fill:#a9dda1; stroke:none;" d="M74 60L75 61L74 60z"/>
<path style="fill:#89d07e; stroke:none;" d="M75 60L75 61L78 61L75 60M88 60L89 61L88 60M105 60L106 61L105 60M72 61L73 62L72 61M104 61L105 62L104 61M161 61L162 62L161 61M7 62L8 63L7 62M70 62L71 63L70 62z"/>
<path style="fill:#a9dda1; stroke:none;" d="M104 62L105 63L104 62z"/>
<path style="fill:#89d07e; stroke:none;" d="M8 63L9 64L8 63z"/>
<path style="fill:#a9dda1; stroke:none;" d="M103 63L104 64L103 63z"/>
<path style="fill:#89d07e; stroke:none;" d="M158 63L159 64L158 63M10 64L11 65L10 64M102 64L103 65L102 64M11 65L12 66L11 65z"/>
<path style="fill:#a9dda1; stroke:none;" d="M101 65L102 66L101 65z"/>
<path style="fill:#89d07e; stroke:none;" d="M66 66L67 67L66 66z"/>
<path style="fill:#a9dda1; stroke:none;" d="M100 66L101 67L100 66z"/>
<path style="fill:#89d07e; stroke:none;" d="M154 66L155 67L154 66M14 67L15 68L14 67z"/>
<path style="fill:#a9dda1; stroke:none;" d="M65 67L66 68L65 67M98 67L99 68L98 67M96 68L97 69L96 68z"/>
<path style="fill:#89d07e; stroke:none;" d="M151 68L152 69L151 68M17 69L18 70L17 69M87 69L87 70L93 70L87 69z"/>
<path style="fill:#a9dda1; stroke:none;" d="M93 69L94 70L93 69z"/>
<path style="fill:#89d07e; stroke:none;" d="M0 70L0 108L1.02778 123.7L20 138.71L36 148.353L49 141L77 122L100 163L95 163L95 164L145 164C151.441 164 159.916 165.429 164.566 159.867C170.369 152.925 164.693 144.307 160.989 138C150.658 120.41 141.231 102.028 130 85L90 111.424L73 121.734L52 107.873L0 70M18 70L19 71L18 70z"/>
<path style="fill:#a9dda1; stroke:none;" d="M64 70L65 71L64 70M77 70L78 71L77 70z"/>
<path style="fill:#89d07e; stroke:none;" d="M148 70L149 71L148 70M20 71L21 72L20 71M64 71L65 72L64 71M21 72L22 73L21 72M74 73L75 74L74 73M144 73L145 74L144 73z"/>
<path style="fill:#a9dda1; stroke:none;" d="M74 74L75 75L74 74M63 85L63 88L64 88L63 85M121 89L122 90L121 89M120 90L121 91L120 90M118 91L119 92L118 91M117 92L118 93L117 92M115 93L116 94L115 93M114 94L115 95L114 94M113 95L114 96L113 95M111 96L112 97L111 96M110 97L111 98L110 97M108 98L109 99L108 98M107 99L108 100L107 99M105 100L106 101L105 100M104 101L105 102L104 101M101 103L102 104L101 103M98 105L99 106L98 105M97 106L98 107L97 106M95 107L96 108L95 107M94 108L95 109L94 108M91 110L92 111L91 110M88 112L89 113L88 112M87 113L88 114L87 113M85 114L86 115L85 114M84 115L85 116L84 115z"/>
<path style="fill:#56b148; stroke:none;" d="M76 122L47 141.667L35 147.853L24 140.884L0 124C0 132.937 -3.83985 153.912 2.3179 160.852C7.45567 166.642 20.969 164 28 164C51.9692 164 76.1318 164.884 100 163C95.4327 150.453 85.5043 131.375 76 122z"/>
<path style="fill:#010201; stroke:none;" d="M167 158L162 163L162 164L168 164L167 158M0 159L0 164L5 164L5 163L0 159z"/>
<path style="fill:#89d07e; stroke:none;" d="M2 161L3 162L2 161z"/>
</svg>
